<mxfile host="app.diagrams.net" modified="2020-07-22T15:49:43.462Z" agent="5.0 (Macintosh; Intel Mac OS X 10_14_6) AppleWebKit/537.36 (KHTML, like Gecko) Chrome/83.0.4103.116 Safari/537.36" etag="aSx3NmjfVH3MlkFFoUlM" version="13.4.9" type="github">
  <diagram id="dkFbw-n3RLmGp0CBISs9" name="Page-1">
    <mxGraphModel dx="946" dy="1611" grid="1" gridSize="10" guides="1" tooltips="1" connect="1" arrows="1" fold="1" page="1" pageScale="1" pageWidth="850" pageHeight="1100" math="0" shadow="0">
      <root>
        <mxCell id="0" />
        <mxCell id="1" parent="0" />
        <mxCell id="otgytmbfdGYqnChwgMqv-10" value="&lt;div&gt;&lt;span&gt;&lt;font style=&quot;font-size: 15px&quot; color=&quot;#ff3333&quot;&gt;infra-common&lt;/font&gt;&lt;/span&gt;&lt;br&gt;&lt;/div&gt;" style="shape=folder;fontStyle=1;spacingTop=10;tabWidth=40;tabHeight=14;tabPosition=left;html=1;align=left;" vertex="1" parent="1">
          <mxGeometry x="100" y="-180" width="660" height="700" as="geometry" />
        </mxCell>
        <mxCell id="otgytmbfdGYqnChwgMqv-1" value="«interface»&lt;br&gt;&lt;b&gt;YamlConfiguration&lt;/b&gt;" style="html=1;" vertex="1" parent="1">
          <mxGeometry x="290" y="180" width="110" height="50" as="geometry" />
        </mxCell>
        <mxCell id="otgytmbfdGYqnChwgMqv-3" value="" style="edgeStyle=orthogonalEdgeStyle;rounded=0;orthogonalLoop=1;jettySize=auto;html=1;" edge="1" parent="1" source="otgytmbfdGYqnChwgMqv-2" target="otgytmbfdGYqnChwgMqv-1">
          <mxGeometry relative="1" as="geometry" />
        </mxCell>
        <mxCell id="otgytmbfdGYqnChwgMqv-2" value="«interface»&lt;br&gt;&lt;b&gt;YamlRuleConfiguration&lt;/b&gt;" style="html=1;" vertex="1" parent="1">
          <mxGeometry x="265" y="300" width="160" height="50" as="geometry" />
        </mxCell>
        <mxCell id="otgytmbfdGYqnChwgMqv-11" value="«interface»&lt;br&gt;&lt;b&gt;RuleConfiguration&lt;/b&gt;" style="html=1;" vertex="1" parent="1">
          <mxGeometry x="490" y="180" width="140" height="50" as="geometry" />
        </mxCell>
        <mxCell id="otgytmbfdGYqnChwgMqv-12" value="«interface»&lt;br&gt;&lt;b&gt;YamlSwapper&lt;/b&gt;" style="html=1;" vertex="1" parent="1">
          <mxGeometry x="390" y="-30" width="110" height="50" as="geometry" />
        </mxCell>
        <mxCell id="otgytmbfdGYqnChwgMqv-15" value="" style="edgeStyle=orthogonalEdgeStyle;rounded=0;orthogonalLoop=1;jettySize=auto;html=1;" edge="1" parent="1" source="otgytmbfdGYqnChwgMqv-13" target="otgytmbfdGYqnChwgMqv-12">
          <mxGeometry relative="1" as="geometry" />
        </mxCell>
        <mxCell id="otgytmbfdGYqnChwgMqv-16" style="rounded=0;orthogonalLoop=1;jettySize=auto;html=1;dashed=1;" edge="1" parent="1" source="otgytmbfdGYqnChwgMqv-13" target="otgytmbfdGYqnChwgMqv-1">
          <mxGeometry relative="1" as="geometry" />
        </mxCell>
        <mxCell id="otgytmbfdGYqnChwgMqv-18" style="edgeStyle=none;rounded=0;orthogonalLoop=1;jettySize=auto;html=1;exitX=0.75;exitY=1;exitDx=0;exitDy=0;entryX=0.5;entryY=0;entryDx=0;entryDy=0;dashed=1;" edge="1" parent="1" source="otgytmbfdGYqnChwgMqv-13" target="otgytmbfdGYqnChwgMqv-11">
          <mxGeometry relative="1" as="geometry" />
        </mxCell>
        <mxCell id="otgytmbfdGYqnChwgMqv-13" value="«interface»&lt;br&gt;&lt;b&gt;YamlRuleConfigurationSwapper&lt;/b&gt;" style="html=1;" vertex="1" parent="1">
          <mxGeometry x="325" y="60" width="240" height="60" as="geometry" />
        </mxCell>
      </root>
    </mxGraphModel>
  </diagram>
</mxfile>
